<svg xmlns="http://www.w3.org/2000/svg" width="920" height="392" viewBox="0 0 920 392" role="img" aria-label="dsh-zcode-rewind:逐工具调用的检查点循环">
  <title>dsh-zcode-rewind — 逐工具调用的工作区检查点</title>

  <!-- 纸底 -->
  <rect width="920" height="392" fill="#FAF9F5"/>

  <!-- 淡淡的半调网点,手作感 -->
  <g fill="#DDD8C8">
    <circle cx="404" cy="96" r="1.6"/><circle cx="424" cy="96" r="1.6"/><circle cx="444" cy="96" r="1.6"/>
    <circle cx="464" cy="96" r="1.6"/><circle cx="484" cy="96" r="1.6"/><circle cx="504" cy="96" r="1.6"/>
    <circle cx="524" cy="96" r="1.6"/><circle cx="404" cy="112" r="1.6"/><circle cx="424" cy="112" r="1.6"/>
    <circle cx="444" cy="112" r="1.6"/><circle cx="464" cy="112" r="1.6"/><circle cx="484" cy="112" r="1.6"/>
    <circle cx="504" cy="112" r="1.6"/><circle cx="524" cy="112" r="1.6"/>
  </g>

  <!-- 表头 -->
  <text x="34" y="46" font-family="ui-monospace, SFMono-Regular, Menlo, Consolas, monospace" font-size="23" font-weight="700" fill="#2E2E2B">dsh-zcode-rewind</text>
  <text x="34" y="70" font-family="ui-monospace, Menlo, Consolas, 'Microsoft YaHei', 'PingFang SC', sans-serif" font-size="12.5" fill="#77776F">面向 DeepSeek Harness 的逐工具调用工作区检查点</text>
  <path d="M34 80 C 130 82, 240 78, 348 81" stroke="#C9C3B0" stroke-width="1.4" fill="none" stroke-linecap="round"/>

  <!-- 第一行:工具调用 -> 指纹差分 -> 内容寻址库 -->
  <rect x="34" y="118" width="188" height="78" rx="7" fill="#FFFFFF" stroke="#4A4A45" stroke-width="1.5"/>
  <text x="48" y="143" font-family="ui-monospace, Menlo, Consolas, 'Microsoft YaHei', sans-serif" font-size="12.5" font-weight="700" fill="#2E2E2B">一次工具调用</text>
  <text x="48" y="163" font-family="ui-monospace, monospace" font-size="11" fill="#77776F">bash · sed -i …</text>
  <text x="48" y="181" font-family="ui-monospace, monospace" font-size="11" fill="#77776F">write · edit · MCP</text>

  <path d="M228 157 L 268 157" stroke="#7D8C6B" stroke-width="1.6" fill="none" stroke-linecap="round"/>
  <path d="M262 152 L 270 157 L 262 162" stroke="#7D8C6B" stroke-width="1.6" fill="none" stroke-linecap="round" stroke-linejoin="round"/>

  <rect x="276" y="118" width="300" height="78" rx="7" fill="#F2EFE6" stroke="#4A4A45" stroke-width="1.5"/>
  <text x="292" y="143" font-family="ui-monospace, Menlo, Consolas, 'Microsoft YaHei', sans-serif" font-size="12.5" font-weight="700" fill="#2E2E2B">只 stat 的指纹差分</text>
  <text x="292" y="163" font-family="ui-monospace, Menlo, Consolas, 'Microsoft YaHei', sans-serif" font-size="11" fill="#77776F">每次调用前后各一次,找差分时</text>
  <text x="292" y="180" font-family="ui-monospace, Menlo, Consolas, 'Microsoft YaHei', sans-serif" font-size="11" fill="#77776F">不读文件内容</text>
  <text x="292" y="194" font-family="ui-monospace, Menlo, Consolas, 'Microsoft YaHei', sans-serif" font-size="10.5" fill="#7D8C6B">3000 个文件 · 遍历 88 ms</text>

  <path d="M582 157 L 622 157" stroke="#7D8C6B" stroke-width="1.6" fill="none" stroke-linecap="round"/>
  <path d="M616 152 L 624 157 L 616 162" stroke="#7D8C6B" stroke-width="1.6" fill="none" stroke-linecap="round" stroke-linejoin="round"/>

  <rect x="630" y="118" width="256" height="78" rx="7" fill="#FFFFFF" stroke="#4A4A45" stroke-width="1.5"/>
  <text x="646" y="143" font-family="ui-monospace, Menlo, Consolas, 'Microsoft YaHei', sans-serif" font-size="12.5" font-weight="700" fill="#2E2E2B">内容寻址库</text>
  <text x="646" y="163" font-family="ui-monospace, monospace" font-size="11" fill="#77776F">$DSH_HOME/workspace-rewind</text>
  <text x="646" y="181" font-family="ui-monospace, Menlo, Consolas, 'Microsoft YaHei', sans-serif" font-size="11" fill="#77776F">在工作区之外,也在 git 之外</text>

  <!-- 向下箭头 -->
  <path d="M128 200 L 128 238" stroke="#7D8C6B" stroke-width="1.6" fill="none" stroke-linecap="round"/>
  <path d="M123 232 L 128 240 L 133 232" stroke="#7D8C6B" stroke-width="1.6" fill="none" stroke-linecap="round" stroke-linejoin="round"/>
  <path d="M758 200 L 758 238" stroke="#7D8C6B" stroke-width="1.6" fill="none" stroke-linecap="round"/>
  <path d="M753 232 L 758 240 L 763 232" stroke="#7D8C6B" stroke-width="1.6" fill="none" stroke-linecap="round" stroke-linejoin="round"/>

  <!-- 第二行:工作区 & 恢复 -->
  <rect x="34" y="246" width="188" height="72" rx="7" fill="#FFFFFF" stroke="#4A4A45" stroke-width="1.5"/>
  <text x="48" y="270" font-family="ui-monospace, Menlo, Consolas, 'Microsoft YaHei', sans-serif" font-size="12.5" font-weight="700" fill="#2E2E2B">你的工作区</text>
  <text x="48" y="289" font-family="ui-monospace, monospace" font-size="11" fill="#77776F">note.txt  ·  junk.txt</text>
  <text x="48" y="306" font-family="ui-monospace, Menlo, Consolas, 'Microsoft YaHei', sans-serif" font-size="10.5" fill="#B0836A">shell 改的也算</text>

  <rect x="630" y="246" width="256" height="72" rx="7" fill="#F2EFE6" stroke="#4A4A45" stroke-width="1.5"/>
  <text x="646" y="270" font-family="ui-monospace, Menlo, Consolas, 'Microsoft YaHei', sans-serif" font-size="12.5" font-weight="700" fill="#2E2E2B">恢复</text>
  <text x="646" y="289" font-family="ui-monospace, monospace" font-size="11" fill="#77776F">revert 一条  ·  asof 某时刻</text>
  <text x="646" y="306" font-family="ui-monospace, Menlo, Consolas, 'Microsoft YaHei', sans-serif" font-size="10.5" fill="#7D8C6B">默认 dry run · 恢复前先写保护快照</text>

  <!-- 两框之间的虚线 -->
  <path d="M228 282 L 622 282" stroke="#C9C3B0" stroke-width="1.3" fill="none" stroke-dasharray="5 5" stroke-linecap="round"/>

  <!-- 底注 -->
  <path d="M34 340 C 200 342, 420 338, 600 341" stroke="#E2DCCB" stroke-width="1.3" fill="none" stroke-linecap="round"/>
  <text x="34" y="364" font-family="ui-monospace, Menlo, Consolas, 'Microsoft YaHei', sans-serif" font-size="11" fill="#77776F">6 个工具 · 2 套件 / 73 项检查 · 零运行时依赖 · 无变更捕获 86 ms</text>
</svg>
